<svg id="Layer_1" data-name="Layer 1" xmlns="http://www.w3.org/2000/svg" viewBox="0 0 381.5 56.37"><title>Amazon Appstore logo - Brandlogos.net</title><path d="M296.28,401.28c-9.65,7.12-23.64,10.91-35.68,10.91A64.58,64.58,0,0,1,217,395.56c-.9-.82-.1-1.93,1-1.3a87.74,87.74,0,0,0,43.61,11.57A86.77,86.77,0,0,0,294.87,399C296.51,398.33,297.87,400.1,296.28,401.28Z" transform="translate(-193.25 -355.81)" style="fill:#f8991d;fill-rule:evenodd"/><path d="M300.29,396.69c-1.23-1.58-8.16-.75-11.27-.38-.94.11-1.09-.71-.24-1.31,5.52-3.88,14.57-2.76,15.63-1.46s-.28,10.38-5.45,14.71c-.8.67-1.55.31-1.2-.57C298.92,404.79,301.53,398.28,300.29,396.69Z" transform="translate(-193.25 -355.81)" style="fill:#f8991d;fill-rule:evenodd"/><path d="M289.24,367.61v-3.77a.93.93,0,0,1,1-1h16.9a.94.94,0,0,1,1,1v3.23a5.3,5.3,0,0,1-1.27,2.37L298,381.93a18.75,18.75,0,0,1,9.64,2.07,1.72,1.72,0,0,1,.9,1.47v4c0,.55-.61,1.2-1.25.86a19.46,19.46,0,0,0-17.85,0c-.59.31-1.2-.32-1.2-.87v-3.82a4.55,4.55,0,0,1,.63-2.59L299,368.56h-8.83A.94.94,0,0,1,289.24,367.61Z" transform="translate(-193.25 -355.81)" style="fill:#f8991d;fill-rule:evenodd"/><path d="M227.62,391.15h-5.14a1,1,0,0,1-.92-.87V363.9a1,1,0,0,1,1-.95h4.79a1,1,0,0,1,.93.89v3.44h.1c1.25-3.33,3.6-4.89,6.76-4.89s5.23,1.55,6.67,4.89a7.59,7.59,0,0,1,13.05-2c1.63,2.22,1.3,5.44,1.3,8.27V390.2a1,1,0,0,1-1,.95H250a1,1,0,0,1-.92-.95v-14a33.7,33.7,0,0,0-.14-4.94,2.68,2.68,0,0,0-3-2.28,3.41,3.41,0,0,0-3.07,2.16,16,16,0,0,0-.48,5.05v14a1,1,0,0,1-1,.95h-5.13a1,1,0,0,1-.92-.95v-14c0-2.94.48-7.27-3.17-7.27s-3.55,4.22-3.55,7.27v14A1,1,0,0,1,227.62,391.15Z" transform="translate(-193.25 -355.81)" style="fill:#f8991d;fill-rule:evenodd"/><path d="M322.61,362.4c7.63,0,11.75,6.55,11.75,14.88,0,8-4.56,14.43-11.75,14.43-7.48,0-11.56-6.55-11.56-14.71S315.17,362.4,322.61,362.4Zm0,5.39c-3.79,0-4,5.16-4,8.38s0,10.1,4,10.1,4.17-5.55,4.17-8.94a24.38,24.38,0,0,0-.77-7A3.22,3.22,0,0,0,322.66,367.78Z" transform="translate(-193.25 -355.81)" style="fill:#f8991d;fill-rule:evenodd"/><path d="M344.26,391.15h-5.12a1,1,0,0,1-.92-.95V363.81a1,1,0,0,1,1-.86H344a1,1,0,0,1,.91.74v4h.1c1.44-3.61,3.45-5.33,7-5.33a6.74,6.74,0,0,1,6,3.11c1.34,2.11,1.34,5.66,1.34,8.22v16.6a1,1,0,0,1-1,.83h-5.15a1,1,0,0,1-.92-.83V376c0-2.89.34-7.11-3.21-7.11a3.36,3.36,0,0,0-3,2.11,11.73,11.73,0,0,0-.82,5v14.2A1,1,0,0,1,344.26,391.15Z" transform="translate(-193.25 -355.81)" style="fill:#f8991d;fill-rule:evenodd"/><path d="M275.78,378.55c0,2,0,3.67-1,5.45a4.18,4.18,0,0,1-3.56,2.34c-2,0-3.13-1.5-3.13-3.73,0-4.38,3.93-5.17,7.65-5.17ZM281,391.08a1.06,1.06,0,0,1-1.21.12,12.55,12.55,0,0,1-2.95-3.43c-2.82,2.87-4.82,3.74-8.47,3.74-4.33,0-7.69-2.67-7.69-8a8.73,8.73,0,0,1,5.48-8.4c2.79-1.22,6.68-1.45,9.67-1.78v-.67c0-1.22.1-2.67-.63-3.73a3.43,3.43,0,0,0-2.88-1.34,3.91,3.91,0,0,0-4.13,3.09,1.09,1.09,0,0,1-.89.95l-5-.54a.91.91,0,0,1-.77-1.08c1.15-6,6.6-7.87,11.49-7.87,2.5,0,5.77.67,7.74,2.56,2.5,2.34,2.26,5.45,2.26,8.85v8c0,2.41,1,3.47,1.94,4.76a1,1,0,0,1,0,1.37c-1,.88-2.91,2.5-3.94,3.41Z" transform="translate(-193.25 -355.81)" style="fill:#f8991d;fill-rule:evenodd"/><path d="M208.39,378.55c0,2,0,3.67-1,5.45a4.18,4.18,0,0,1-3.56,2.34c-2,0-3.13-1.5-3.13-3.73,0-4.38,3.93-5.17,7.64-5.17Zm5.18,12.53a1.06,1.06,0,0,1-1.21.12,12.5,12.5,0,0,1-2.95-3.43c-2.82,2.87-4.82,3.74-8.47,3.74-4.33,0-7.69-2.67-7.69-8a8.73,8.73,0,0,1,5.48-8.4c2.79-1.22,6.68-1.45,9.66-1.78v-.67c0-1.22.1-2.67-.62-3.73a3.43,3.43,0,0,0-2.88-1.34,3.91,3.91,0,0,0-4.13,3.09,1.09,1.09,0,0,1-.89.95l-5-.54a.91.91,0,0,1-.77-1.08c1.14-6,6.6-7.87,11.49-7.87,2.5,0,5.77.67,7.74,2.56,2.5,2.34,2.26,5.45,2.26,8.85v8c0,2.41,1,3.47,1.94,4.76a1,1,0,0,1,0,1.37c-1.05.88-2.92,2.5-3.94,3.41Z" transform="translate(-193.25 -355.81)" style="fill:#f8991d;fill-rule:evenodd"/><path d="M380.16,391.45a8.4,8.4,0,0,1-6.09-2.25,8.45,8.45,0,0,1,.54-12.18,11.74,11.74,0,0,1,7.7-2.36,27.06,27.06,0,0,1,6.22.8v-3.17q0-2.73-1.18-3.81t-4.13-1.07a24.78,24.78,0,0,0-3.92.35,26.37,26.37,0,0,0-4.08,1,3.3,3.3,0,0,1-.91.16c-.46,0-.7-.34-.7-1v-2a2,2,0,0,1,.21-1.07,2.63,2.63,0,0,1,1.13-.7,25.65,25.65,0,0,1,9.28-1.61q5.26,0,7.75,2.15t2.5,6.71v18.09a1,1,0,0,1-1.18,1.18h-2.85a1.19,1.19,0,0,1-1.34-1.07l-.27-1.55a14.88,14.88,0,0,1-4.16,2.52A12.14,12.14,0,0,1,380.16,391.45Zm1.77-4.51a8.94,8.94,0,0,0,3.27-.67,13.43,13.43,0,0,0,3.33-1.9v-5.15a25.23,25.23,0,0,0-5-.59q-5.58,0-5.58,4.35A3.89,3.89,0,0,0,379,385.9,4,4,0,0,0,381.94,386.94Z" transform="translate(-193.25 -355.81)" style="fill:#f8991d"/><path d="M401.38,401.7a1,1,0,0,1-1.18-1.18v-36a1,1,0,0,1,1.18-1.18h3a1.25,1.25,0,0,1,1.4,1.07l.32,1.66a13.62,13.62,0,0,1,4.16-2.63,12.66,12.66,0,0,1,4.75-.91,9.86,9.86,0,0,1,8.13,3.81q3,3.82,3,10.25a19.06,19.06,0,0,1-1.48,7.78,11.67,11.67,0,0,1-4.11,5.1,10.5,10.5,0,0,1-6,1.77,12.35,12.35,0,0,1-4.35-.78,11.26,11.26,0,0,1-3.65-2.17v12.24a1,1,0,0,1-1.18,1.18Zm11.54-15.46a5.83,5.83,0,0,0,5.1-2.34q1.67-2.33,1.66-7.11t-1.64-7a5.82,5.82,0,0,0-5.07-2.28,11.1,11.1,0,0,0-6.44,2v14.6A11,11,0,0,0,412.92,386.25Z" transform="translate(-193.25 -355.81)" style="fill:#f8991d"/><path d="M431.86,401.7a1,1,0,0,1-1.18-1.18v-36a1,1,0,0,1,1.18-1.18h3a1.25,1.25,0,0,1,1.4,1.07l.32,1.66a13.62,13.62,0,0,1,4.16-2.63,12.66,12.66,0,0,1,4.75-.91,9.86,9.86,0,0,1,8.13,3.81q3,3.82,3,10.25a19.06,19.06,0,0,1-1.48,7.78,11.67,11.67,0,0,1-4.11,5.1,10.5,10.5,0,0,1-6,1.77,12.35,12.35,0,0,1-4.35-.78,11.26,11.26,0,0,1-3.65-2.17v12.24a1,1,0,0,1-1.18,1.18Zm11.54-15.46a5.83,5.83,0,0,0,5.1-2.34q1.67-2.33,1.66-7.11t-1.64-7a5.82,5.82,0,0,0-5.07-2.28,11.1,11.1,0,0,0-6.44,2v14.6A11,11,0,0,0,443.4,386.25Z" transform="translate(-193.25 -355.81)" style="fill:#f8991d"/><path d="M468.48,391.45a21.46,21.46,0,0,1-7.84-1.4,2.37,2.37,0,0,1-1.1-.67,2.08,2.08,0,0,1-.24-1.15V386.3c0-.72.25-1.07.75-1.07a7.15,7.15,0,0,1,1.5.32,25.5,25.5,0,0,0,6.87,1.07,7.17,7.17,0,0,0,3.92-.83,2.86,2.86,0,0,0,1.24-2.55,2.52,2.52,0,0,0-.75-1.9,8.36,8.36,0,0,0-2.79-1.48l-4.45-1.72q-6-2.3-6-7.51a7.12,7.12,0,0,1,2.79-5.93,11.83,11.83,0,0,1,7.46-2.17,21.2,21.2,0,0,1,6.71,1.13,2.26,2.26,0,0,1,1.07.62,2,2,0,0,1,.27,1.21v1.88a1.39,1.39,0,0,1-.19.83.8.8,0,0,1-.67.24,8,8,0,0,1-1.34-.27,24.88,24.88,0,0,0-5.47-.8,7,7,0,0,0-3.62.72,2.49,2.49,0,0,0-1.15,2.28,2.41,2.41,0,0,0,.83,1.91,11.16,11.16,0,0,0,3,1.58l4.13,1.61a11.07,11.07,0,0,1,4.64,3,6.59,6.59,0,0,1,1.42,4.35,7.73,7.73,0,0,1-2.9,6.36Q473.64,391.45,468.48,391.45Z" transform="translate(-193.25 -355.81)" style="fill:#f8991d"/><path d="M494.46,391q-4.24,0-6.28-2t-2-6.06V368.16H482.7a1,1,0,0,1-1.18-1.18v-1.55a1.47,1.47,0,0,1,.27-1,1.49,1.49,0,0,1,.86-.4l3.7-.54.8-6.5a1.28,1.28,0,0,1,.38-.91,1.49,1.49,0,0,1,1-.27h2.79a1,1,0,0,1,1.18,1.18v6.33h6.6a1,1,0,0,1,1.18,1.18V367a1,1,0,0,1-1.18,1.18h-6.6v14.49a3.31,3.31,0,0,0,.89,2.6,4.5,4.5,0,0,0,3,.78,9.87,9.87,0,0,0,2-.16,6.21,6.21,0,0,1,1.24-.16q.91,0,.91,1v1.93a1.9,1.9,0,0,1-.3,1.21,2.13,2.13,0,0,1-1.1.56A18,18,0,0,1,494.46,391Z" transform="translate(-193.25 -355.81)" style="fill:#f8991d"/><path d="M515.35,391.45q-6.23,0-9.72-3.84T502.14,377q0-6.81,3.49-10.63t9.72-3.81q6.23,0,9.71,3.81T528.55,377q0,6.82-3.49,10.65T515.35,391.45Zm0-5q6.76,0,6.76-9.5t-6.76-9.44q-6.76,0-6.76,9.44T515.35,386.46Z" transform="translate(-193.25 -355.81)" style="fill:#f8991d"/><path d="M534.24,390.65a1,1,0,0,1-1.18-1.18v-25a1,1,0,0,1,1.18-1.18h2.84a1.87,1.87,0,0,1,1,.21,1.23,1.23,0,0,1,.4.81l.65,3.06a15,15,0,0,1,4-3.33,8.77,8.77,0,0,1,4.08-1h.22a4.21,4.21,0,0,1,1.15.13,1.06,1.06,0,0,1,.65.46,2.58,2.58,0,0,1,.19,1.18v2.9q0,1.13-1,1.13-.32,0-.89-.05c-.37,0-.78-.05-1.21-.05a12.39,12.39,0,0,0-7,2v18.62a1,1,0,0,1-1.18,1.18Z" transform="translate(-193.25 -355.81)" style="fill:#f8991d"/><path d="M564.66,391.45q-6.76,0-10.25-3.65t-3.49-10.63q0-6.92,3.41-10.79t9.53-3.86q5.26,0,8.08,2.87t2.82,8.13a28.31,28.31,0,0,1-.27,3.81,1.51,1.51,0,0,1-.4.94,1.19,1.19,0,0,1-.78.24H556.77q.16,4.08,2.28,6t6.52,1.91a24.38,24.38,0,0,0,6.76-1l.65-.16a1.69,1.69,0,0,1,.38-.05c.54,0,.8.36.8,1.07v1.93a2.09,2.09,0,0,1-.24,1.15,2.37,2.37,0,0,1-1.1.67A21.65,21.65,0,0,1,564.66,391.45Zm4.51-17.18v-.43a7.65,7.65,0,0,0-1.42-5,5.09,5.09,0,0,0-4.16-1.72,6.21,6.21,0,0,0-4.72,1.93,8.31,8.31,0,0,0-2.09,5.21Z" transform="translate(-193.25 -355.81)" style="fill:#f8991d"/></svg>